<svg width="current" height="current" viewBox="0 0 60 60" fill="none" xmlns="http://www.w3.org/2000/svg">
<path fill-rule="evenodd" clip-rule="evenodd" d="M24.875 11.25C24.2481 11.25 23.6627 11.5633 23.3149 12.0849L20.1215 16.875H13.625C12.1332 16.875 10.7024 17.4676 9.64752 18.5225C8.59263 19.5774 8 21.0082 8 22.5V43.125C8 44.6168 8.59263 46.0476 9.64752 47.1025C10.7024 48.1574 12.1332 48.75 13.625 48.75H47.375C48.8668 48.75 50.2976 48.1574 51.3525 47.1025C52.4074 46.0476 53 44.6168 53 43.125V22.5C53 21.0082 52.4074 19.5774 51.3525 18.5225C50.2976 17.4676 48.8668 16.875 47.375 16.875H40.8785L37.6851 12.0849C37.3373 11.5633 36.7519 11.25 36.125 11.25H24.875ZM22.6851 19.7901L25.8785 15H35.1215L38.3149 19.7901C38.6627 20.3117 39.2481 20.625 39.875 20.625H47.375C47.8723 20.625 48.3492 20.8225 48.7008 21.1742C49.0525 21.5258 49.25 22.0027 49.25 22.5V43.125C49.25 43.6223 49.0525 44.0992 48.7008 44.4508C48.3492 44.8025 47.8723 45 47.375 45H13.625C13.1277 45 12.6508 44.8025 12.2992 44.4508C11.9475 44.0992 11.75 43.6223 11.75 43.125V22.5C11.75 22.0027 11.9475 21.5258 12.2992 21.1742C12.6508 20.8225 13.1277 20.625 13.625 20.625H21.125C21.7519 20.625 22.3373 20.3117 22.6851 19.7901ZM24.8748 31.875C24.8748 28.7684 27.3932 26.25 30.4998 26.25C33.6064 26.25 36.1248 28.7684 36.1248 31.875C36.1248 34.9816 33.6064 37.5 30.4998 37.5C27.3932 37.5 24.8748 34.9816 24.8748 31.875ZM30.4998 22.5C25.3222 22.5 21.1248 26.6973 21.1248 31.875C21.1248 37.0527 25.3222 41.25 30.4998 41.25C35.6775 41.25 39.8748 37.0527 39.8748 31.875C39.8748 26.6973 35.6775 22.5 30.4998 22.5Z" fill="current"/>
</svg>
