<svg width="current" height="current" viewBox="0 0 60 60" fill="none" xmlns="http://www.w3.org/2000/svg">
<path fill-rule="evenodd" clip-rule="evenodd" d="M31.0045 12.3447C30.4136 11.8851 29.5861 11.8851 28.9952 12.3447L14.268 23.7992C13.8694 24.1093 13.6362 24.5859 13.6362 25.0909V43.0909C13.6362 44.3929 14.1534 45.6415 15.0741 46.5622C15.9947 47.4828 17.2433 48 18.5453 48H41.4544C42.7564 48 44.005 47.4828 44.9257 46.5622C45.8463 45.6415 46.3635 44.3929 46.3635 43.0909V25.0909C46.3635 24.5859 46.1304 24.1093 45.7318 23.7992L31.0045 12.3447ZM16.909 43.0909V25.8912L29.9999 15.7094L43.0908 25.8912V43.0909C43.0908 43.5249 42.9184 43.9411 42.6115 44.248C42.3046 44.5549 41.8884 44.7273 41.4544 44.7273H36.5454V30C36.5454 29.0963 35.8128 28.3636 34.9091 28.3636H25.0909C24.1872 28.3636 23.4545 29.0963 23.4545 30V44.7273H18.5453C18.1113 44.7273 17.6951 44.5549 17.3882 44.248C17.0814 43.9411 16.909 43.5249 16.909 43.0909ZM26.7273 44.7273H33.2727V31.6364H26.7273V44.7273Z" fill="current"/>
</svg>
