<svg width="current" height="current" viewBox="0 0 60 60" fill="black" xmlns="http://www.w3.org/2000/svg">
<path d="M30 15.8C32.32 15.8 34.2 17.68 34.2 20C34.2 22.32 32.32 24.2 30 24.2C27.68 24.2 25.8 22.32 25.8 20C25.8 17.68 27.68 15.8 30 15.8ZM30 33.8C35.94 33.8 42.2 36.72 42.2 38V40.2H17.8V38C17.8 36.72 24.06 33.8 30 33.8ZM30 12C25.58 12 22 15.58 22 20C22 24.42 25.58 28 30 28C34.42 28 38 24.42 38 20C38 15.58 34.42 12 30 12ZM30 30C24.66 30 14 32.68 14 38V42C14 43.1 14.9 44 16 44H44C45.1 44 46 43.1 46 42V38C46 32.68 35.34 30 30 30Z" fill="current"/>
</svg>
