<svg width="current" height="current" viewBox="0 0 60 60" fill="black" xmlns="http://www.w3.org/2000/svg">
<path d="M38.1974 33.2814H36.6682L36.1262 32.7591C38.4491 30.0507 39.6492 26.3557 38.9911 22.4285C38.0813 17.0504 33.5905 12.7557 28.1705 12.0979C19.9825 11.092 13.0914 17.979 14.098 26.1622C14.7561 31.579 19.0534 36.0672 24.4346 36.9764C28.3641 37.6342 32.0613 36.4347 34.7712 34.1133L35.2939 34.6549V36.1832L43.5206 44.4051C44.3142 45.1983 45.6111 45.1983 46.4048 44.4051C47.1984 43.612 47.1984 42.3158 46.4048 41.5226L38.1974 33.2814ZM26.5832 33.2814C21.7634 33.2814 17.8726 29.3929 17.8726 24.5759C17.8726 19.7588 21.7634 15.8703 26.5832 15.8703C31.4031 15.8703 35.2939 19.7588 35.2939 24.5759C35.2939 29.3929 31.4031 33.2814 26.5832 33.2814Z" fill="current"/>
</svg>
