<svg width="current" height="current" viewBox="0 0 60 60" fill="black" xmlns="http://www.w3.org/2000/svg">
<path fill-rule="evenodd" clip-rule="evenodd" d="M46.0962 48.3012C46.4088 48.5982 46.7996 48.7546 47.206 48.7546C47.6125 48.7546 48.0033 48.5982 48.3003 48.3012C48.9099 47.6916 48.9099 46.7068 48.3003 46.0972L40.5313 38.3282C40.4419 38.209 40.3384 38.1067 40.2248 38.0217L27.9362 25.7331C27.9057 25.694 27.873 25.6561 27.8383 25.6195C27.7799 25.5564 27.7172 25.4992 27.651 25.4479L21.8975 19.6944C21.8448 19.6328 21.788 19.5762 21.7279 19.5248L13.9103 11.7072C13.3007 11.0976 12.3159 11.0976 11.7063 11.7072C11.0966 12.3169 11.0966 13.3017 11.7063 13.9113L18.3892 20.5942C15.552 23.0285 13.2223 25.9411 11.4405 29.2617C11.206 29.715 11.1904 30.2465 11.4249 30.6999C11.6906 31.247 18.2403 44.065 30.0423 44.065C33.3005 44.0103 36.4027 43.0683 39.1077 41.3127L46.0962 48.3012ZM36.8373 39.0423L33.2103 35.4154C32.2837 35.9998 31.2148 36.3321 30.0892 36.3742C30.0587 36.364 30.015 36.3671 29.9667 36.3705C29.9407 36.3723 29.9133 36.3742 29.886 36.3742C28.2916 36.3742 26.7909 35.7802 25.6342 34.7016C24.4149 33.5605 23.7115 32.0129 23.6489 30.356C23.6015 29.0749 23.932 27.8479 24.5928 26.7979L20.6075 22.8125C18.2016 24.8492 16.1845 27.2613 14.5981 29.9964C16.0675 32.5131 21.6012 40.9387 30.0111 40.9387C32.4253 40.9011 34.7594 40.253 36.8373 39.0423ZM26.9163 29.1214C26.7991 29.4727 26.7454 29.8469 26.7597 30.2309C26.7909 31.0594 27.1348 31.841 27.7601 32.4037C28.3697 32.9665 29.1982 33.2791 29.9954 33.2478C30.3006 33.2363 30.5994 33.1824 30.8833 33.0884L26.9163 29.1214ZM42.8291 36.1866C43.1105 36.4211 43.47 36.5461 43.8296 36.5461C44.2673 36.5461 44.7206 36.3586 45.0176 35.9834C46.3776 34.3733 47.5812 32.6069 48.5816 30.7311C48.8161 30.2778 48.8161 29.7463 48.5973 29.293C48.3315 28.7459 41.7818 15.9278 30.0111 15.9278C28.7449 15.8809 27.5569 16.0685 26.3689 16.3499C25.5248 16.5375 25.0089 17.3816 25.2121 18.2101C25.3997 19.0542 26.2438 19.5857 27.0879 19.3824C28.0415 19.1636 29.0732 19.1011 30.0111 19.0542C38.421 19.0542 43.9546 27.4797 45.424 29.9964C44.6112 31.4033 43.6889 32.7476 42.6416 33.9825C42.0788 34.6391 42.1726 35.6239 42.8291 36.1866Z" fill="current"/>
</svg>
